<?xml version="1.0" encoding="utf-8"?>
<!-- Generator: Adobe Illustrator 22.0.1, SVG Export Plug-In . SVG Version: 6.00 Build 0)  -->
<svg version="1.1" id="Layer_1" xmlns="http://www.w3.org/2000/svg" xmlns:xlink="http://www.w3.org/1999/xlink" x="0px" y="0px"
	 viewBox="0 0 139 94" style="enable-background:new 0 0 139 94;" xml:space="preserve">
<style type="text/css">
	.st0{fill:#005EB8;}
</style>
<title>Artboard 1 copy</title>
<g>
	<path class="st0" d="M58.1,57.2c-3.6,0-6.1-2.6-6.1-6v0c0-3.3,2.6-6,6.1-6c2.2,0,3.5,0.6,4.8,1.8L61,48.7c-0.5-0.4-1.3-1.2-3-1.2
		c-1.9,0-3.3,1.6-3.3,3.6v0c0,2.1,1.4,3.6,3.5,3.6c0.9,0,1.8-0.2,2.4-0.6v-1.7H58v-2.2h5.1v5.1C61.9,56.3,60.2,57.2,58.1,57.2z
		 M123.5,38.1c0-5.4-4.4-9.8-9.8-9.8c-5.4,0-9.8,4.4-9.8,9.8c0,5.4,4.4,9.8,9.8,9.8C119,47.9,123.5,43.5,123.5,38.1L123.5,38.1
		L123.5,38.1z M123,38.1c0,5.2-4.2,9.4-9.4,9.4c-5.2,0-9.4-4.2-9.4-9.4c0-5.2,4.2-9.4,9.4-9.4C118.8,28.7,123,32.9,123,38.1
		L123,38.1L123,38.1z M122.4,38.1c0-3.1-1.6-6.3-5-7.4c-0.7-0.2-1.3-0.4-2-0.4c-1.6,0-1.6,0.9-2.4,0.9c-0.4,0-0.7-0.3-0.7-0.7
		c0-0.6,0.7-1.1,1.9-1.1c1.1,0,1.9,0.3,2.1,0.4l0-0.1c-0.3-0.1-1.3-0.5-2.8-0.5c-3.1,0-6.3,1.6-7.4,5c-0.2,0.7-0.4,1.3-0.4,2
		c0,1.6,0.9,1.7,0.9,2.4c0,0.4-0.3,0.7-0.7,0.7c-0.6,0-1.1-0.7-1.1-1.9c0-1.1,0.3-1.9,0.3-2.1l-0.1,0c-0.1,0.3-0.4,1.3-0.4,2.8
		c0,3.2,1.6,6.4,5,7.4c0.7,0.2,1.3,0.4,2,0.4c1.6,0,1.6-0.9,2.4-0.9c0.4,0,0.7,0.3,0.7,0.7c0,0.6-0.7,1.1-1.9,1.1
		c-1.1,0-2-0.3-2.1-0.3l0,0.1c0.3,0.1,1.3,0.4,2.8,0.4c3.1,0,6.4-1.6,7.4-5c0.2-0.7,0.4-1.3,0.4-2c0-1.6-0.9-1.7-0.9-2.4
		c0-0.4,0.3-0.7,0.7-0.7c0.6,0,1.1,0.7,1.1,1.9c0,1.1-0.3,1.9-0.3,2.1l0.1,0C122.1,40.6,122.4,39.5,122.4,38.1L122.4,38.1
		L122.4,38.1z M119.1,40.7c0,1.2-1.1,2.5-2.6,2.5c-1.9,0-2.8-1.6-2.8-3c0-2,1.4-2.8,1.9-3.1c-0.1-0.1-0.2-0.2-0.3-0.3
		c-0.7,0.5-1.3,0.9-2.5,1.6c-0.1,0.9-0.1,1.8-0.4,2.5c-0.5,1.4-1.4,2.4-2.7,2.4c-1.1,0-1.6-0.8-1.6-1.6c0-0.6,0.4-1.4,1-1.9
		c0.8-0.7,1.7-1.1,2.9-1.8c0-0.2,0.1-0.3,0.1-0.5c-0.3,0.3-0.7,0.4-1.1,0.4c-0.6,0-1-0.5-1.1-1c-0.8-0.1-1.3-0.6-1.4-1.5
		c0-0.6,0.2-1.2,0.7-1.2c0.2,0,0.2,0.1,0.2,0.2c0,0.1-0.1,0.5-0.1,0.8c0,0.4,0.2,0.8,0.6,0.8c0-1.4,1-3.2,2.3-3.2
		c0.8,0,0.9,0.6,0.9,0.9c0,1.3-1.3,2.7-2.3,3c0,0.1,0.1,0.4,0.5,0.4c0.4,0,0.9-0.4,1.1-0.7c0.1-0.6,0.5-1.4,1.1-1.4
		c0.2,0,0.3,0.2,0.3,0.4c0,0.4-0.4,0.9-0.8,1.3c0,0.3-0.1,0.6-0.1,0.8c1-0.6,1.4-0.9,2.2-1.4c-0.1-0.2-0.1-0.4-0.1-0.6
		c0-1.3,0.8-2.7,2-2.7c0.6,0,1,0.4,1,0.9c0,0.9-0.8,1.7-1.9,2.6c0.1,0.2,0.2,0.4,0.4,0.5c0-0.1,0.4-0.1,0.7-0.1
		c0.3,0,0.8,0.1,0.8,0.4c0,0.4-0.5,0.5-0.9,0.5c-0.2,0-0.6-0.1-0.6-0.1c-0.6,0.2-1.7,0.8-1.7,2.6c0,1.2,0.7,2.3,1.9,2.3
		c0.9,0,1.6-0.7,1.6-1.7c0-0.7-0.3-1.3-0.9-1.3c-0.3,0-0.6,0.2-0.6,0.6c0,0.5,0.4,0.6,0.4,1c0,0.2-0.2,0.4-0.4,0.4
		c-0.5,0-1-0.5-1-1.2c0-0.8,0.7-1.5,1.6-1.5C118.5,38.5,119.1,39.6,119.1,40.7L119.1,40.7L119.1,40.7z M117.1,33.8
		c0-0.1,0-0.3-0.2-0.3c-0.4,0-1.1,0.9-1.1,2C116.6,34.8,117.1,34.2,117.1,33.8L117.1,33.8L117.1,33.8z M112.3,33.7
		c0-0.1-0.1-0.2-0.2-0.2c-0.6,0-1.4,1.5-1.4,2.4C111.6,35.4,112.3,34.3,112.3,33.7L112.3,33.7L112.3,33.7z M111.9,38.8
		c-1.2,0.6-2.8,1.7-2.8,2.8c0,0.4,0.2,0.7,0.6,0.7C111,42.4,111.7,40.4,111.9,38.8L111.9,38.8L111.9,38.8z M45.4,60.6
		c-0.6,0-1.2,0.2-1.5,0.5c-0.1,0.1-0.1,0.1,0,0.2l0.1,0.2c0.1,0.1,0.1,0.1,0.2,0c0.3-0.2,0.7-0.4,1.1-0.4c0.9,0,1,0.6,1,1.1v0.4
		c-0.3-0.1-0.7-0.2-1-0.2c-1.2,0-1.7,0.6-1.7,1.3c0,0.8,0.5,1.3,1.5,1.3c0.6,0,1-0.2,1.4-0.6v0.4c0,0.1,0,0.2,0.2,0.2h0.3
		c0.1,0,0.2,0,0.2-0.2v-2.7C47.1,61.2,46.6,60.6,45.4,60.6z M46.4,64c-0.3,0.5-0.8,0.6-1.2,0.6c-0.7,0-0.9-0.4-0.9-0.8
		c0-0.5,0.3-0.8,1.1-0.8c0.3,0,0.7,0,0.9,0.1V64z M54.1,61.8h-1.8c-0.1,0-0.2,0-0.2,0.2v0.3c0,0.1,0,0.2,0.2,0.2h1.3v1.7
		c-0.4,0.2-0.9,0.3-1.4,0.3c-1.5,0-2-1-2-2.4c0-1.4,0.6-2.5,1.9-2.5c0.6,0,1.1,0.2,1.5,0.5c0.1,0.1,0.2,0.1,0.2,0l0.2-0.3
		c0.1-0.1,0.1-0.2,0-0.2c-0.5-0.5-1.2-0.7-1.9-0.7c-1.9,0-2.7,1.5-2.7,3.2c0,1.6,0.8,3,2.8,3c0.7,0,1.4-0.2,2-0.5
		c0.1-0.1,0.1-0.1,0.1-0.2V62C54.3,61.9,54.2,61.8,54.1,61.8z M58.8,59h-3.2c-0.1,0-0.2,0-0.2,0.2v5.7c0,0.1,0,0.2,0.2,0.2h3.2
		c0.1,0,0.2,0,0.2-0.2v-0.3c0-0.1,0-0.2-0.2-0.2h-2.6v-2.2h2.3c0.1,0,0.2,0,0.2-0.2v-0.3c0-0.1,0-0.2-0.2-0.2h-2.3v-2h2.6
		c0.1,0,0.2,0,0.2-0.2v-0.3C59,59.1,58.9,59,58.8,59z M62.9,61.2c0.4,0,0.6,0.1,0.9,0.3c0.1,0.1,0.2,0.1,0.2,0l0.2-0.3
		c0.1-0.1,0.1-0.2,0-0.2c-0.3-0.3-0.7-0.4-1.2-0.4c-1.3,0-2,1.1-2,2.3c0,1.3,0.7,2.2,1.9,2.2c0.5,0,0.9-0.1,1.3-0.4
		c0.1-0.1,0.1-0.1,0-0.2l-0.1-0.2c-0.1-0.1-0.1-0.1-0.2,0c-0.3,0.2-0.6,0.3-0.9,0.3c-0.9,0-1.3-0.7-1.3-1.7
		C61.7,61.9,62.1,61.2,62.9,61.2z M66.6,60.6c-1.4,0-2,1.1-2,2.3c0,1.2,0.6,2.3,2,2.3c1.4,0,2-1.1,2-2.3
		C68.7,61.7,68.1,60.6,66.6,60.6z M66.6,64.6c-0.9,0-1.3-0.8-1.3-1.7c0-0.9,0.4-1.7,1.3-1.7s1.3,0.8,1.3,1.7
		C67.9,63.8,67.6,64.6,66.6,64.6z M74.2,60.6c-0.6,0-1.1,0.3-1.4,0.7c-0.2-0.4-0.6-0.7-1.2-0.7c-0.6,0-1,0.2-1.3,0.6v-0.3
		c0-0.1,0-0.2-0.2-0.2h-0.3c-0.1,0-0.2,0-0.2,0.2v4c0,0.1,0,0.2,0.2,0.2h0.4c0.1,0,0.2,0,0.2-0.2v-3.1c0.4-0.4,0.7-0.6,1.1-0.6
		c0.6,0,0.9,0.5,0.9,1.1v2.6c0,0.1,0,0.2,0.2,0.2h0.4c0.1,0,0.2,0,0.2-0.2v-3.2c0.4-0.4,0.7-0.6,1.1-0.6c0.7,0,0.9,0.5,0.9,1.1v2.6
		c0,0.1,0,0.2,0.2,0.2h0.4c0.1,0,0.2,0,0.2-0.2v-2.6C75.7,61.3,75.2,60.6,74.2,60.6z M78.7,60.6c-0.6,0-1,0.3-1.3,0.6v-0.3
		c0-0.1,0-0.2-0.2-0.2h-0.3c-0.1,0-0.2,0-0.2,0.2v5.9c0,0.1,0,0.2,0.2,0.2h0.4c0.1,0,0.2,0,0.2-0.2v-2.1c0.3,0.3,0.6,0.5,1.2,0.5
		c1.1,0,1.9-0.9,1.9-2.3C80.5,61.4,79.8,60.6,78.7,60.6z M78.6,64.6c-0.5,0-0.8-0.2-1.1-0.6v-2.2c0.3-0.4,0.7-0.6,1.2-0.6
		c0.7,0,1.2,0.5,1.2,1.7C79.8,64,79.3,64.6,78.6,64.6z M82.9,60.6c-0.6,0-1.2,0.2-1.5,0.5c-0.1,0.1-0.1,0.1,0,0.2l0.1,0.2
		c0.1,0.1,0.1,0.1,0.2,0c0.3-0.2,0.7-0.4,1.1-0.4c0.9,0,1,0.6,1,1.1v0.4c-0.3-0.1-0.7-0.2-1-0.2c-1.2,0-1.7,0.6-1.7,1.3
		c0,0.8,0.5,1.3,1.5,1.3c0.6,0,1-0.2,1.4-0.6v0.4c0,0.1,0,0.2,0.2,0.2h0.3c0.1,0,0.2,0,0.2-0.2v-2.7C84.6,61.2,84.1,60.6,82.9,60.6z
		 M83.9,64c-0.3,0.5-0.8,0.6-1.2,0.6c-0.7,0-0.9-0.4-0.9-0.8c0-0.5,0.3-0.8,1.1-0.8c0.3,0,0.7,0,0.9,0.1V64z M87.7,60.6
		c-0.6,0-1,0.2-1.4,0.6v-0.4c0-0.1,0-0.2-0.2-0.2h-0.3c-0.1,0-0.2,0-0.2,0.2v4c0,0.1,0,0.2,0.2,0.2h0.4c0.1,0,0.2,0,0.2-0.2v-3.1
		c0.4-0.4,0.7-0.6,1.2-0.6c0.7,0,0.9,0.5,0.9,1.1v2.6c0,0.1,0,0.2,0.2,0.2H89c0.1,0,0.2,0,0.2-0.2v-2.6
		C89.2,61.3,88.8,60.6,87.7,60.6z M93.4,60.7H93c-0.1,0-0.2,0.1-0.2,0.1c-0.2,1.1-0.6,2.3-1.2,3.4c-0.5-1.1-0.9-2.4-1.1-3.4
		c0-0.1-0.1-0.2-0.2-0.2h-0.4c-0.1,0-0.1,0-0.1,0.1c0,0,0,0.1,0,0.2c0.3,1.3,0.8,2.8,1.5,4c-0.5,0.7-0.9,1-1.3,1.4
		c-0.1,0-0.1,0.1-0.1,0.1c0,0,0,0.1,0,0.1l0.2,0.2c0,0.1,0.1,0.1,0.1,0.1s0.1,0,0.1,0c1-0.7,1.8-1.9,2.4-3.4
		c0.3-0.8,0.6-1.7,0.8-2.5c0-0.1,0-0.1,0-0.2C93.5,60.7,93.5,60.7,93.4,60.7z M57,41.5h-6V39h4.6v-2.2H51v-2.2h5.7v-2.3h-8.5v11.5
		H57V41.5z M33.8,43.9h3l-4.1-11.5h-3.1l-4.3,11.5h3l0.8-2.7H33L33.8,43.9z M29.5,39.1c0.6-1.8,1.1-2.7,1.5-4.1
		c0.4,1.4,0.8,2.2,1.4,4.1H29.5z M23.1,37.8c1.3-0.4,2-1.3,2-2.5c0-1.2-0.5-2.1-1.4-2.5c-0.6-0.3-1.5-0.4-2.8-0.4h-5.1v11.5h4.9
		c1.7,0,2.6-0.1,3.4-0.6c0.9-0.6,1.4-1.5,1.4-2.7C25.4,39.1,24.6,38.1,23.1,37.8z M18.5,34.5h2.1c1.4,0,1.7,0.5,1.7,1.1
		c0,0.8-0.5,1.2-1.7,1.2h-2.1V34.5z M20.6,41.6h-2.1V39h2.2c1.5,0,1.9,0.5,1.9,1.3C22.5,41.1,22,41.6,20.6,41.6z M64.8,43.9h3.2
		l-3.1-4.8c1.5-0.4,2.6-1.4,2.6-3.3c0-0.8-0.2-1.6-0.7-2.2c-0.6-0.7-1.7-1.3-3.5-1.3H58v11.5h2.7V39h1.4L64.8,43.9z M60.8,36.8v-2.3
		h2.2c1.4,0,1.7,0.5,1.7,1.1c0,0.8-0.5,1.2-1.7,1.2H60.8z M67,52.1h4.4v4.8h2.7V45.4h-2.7v4.3H67v-4.3h-2.7v11.5H67V52.1z
		 M37.3,49.7h-4.4v-4.3h-2.7v11.5h2.7v-4.8h4.4v13H40V32.3h-2.8V49.7z M47.6,43.9l-4.1-5.9l4.1-5.6h-3.3L40,37.9l4.3,5.9H47.6z
		 M51,51.9v-6.6h-2.7V52c0,2.1-0.8,2.7-2.1,2.7c-1.2,0-2.1-0.6-2.1-2.7v-6.7h-2.7v6.5c0,3.5,1.3,5.3,4.8,5.3
		C49.5,57.2,51,55.5,51,51.9z M84.2,54.6h-6v-2.5h4.6v-2.2h-4.6v-2.2h5.7v-2.3h-8.5v11.5h8.7V54.6z M90.9,50.1l-1.7-0.6
		c-1.1-0.4-1.4-0.7-1.4-1.2c0-0.5,0.5-0.9,1.2-0.9c1.1,0,2,0.4,3,1.6l2.1-1.7c-1.1-1.3-2.6-2.1-4.6-2.1c-2.6,0-4.5,1.4-4.5,3.5
		c0,1.7,0.9,2.6,2.6,3.3l1.5,0.6c1.6,0.6,2,0.8,2,1.4c0,0.5-0.4,0.9-1.7,0.9c-0.9,0-2.1-0.5-2.9-1.6L84.5,55c1.2,1.4,3.1,2.2,5,2.2
		c3,0,4.6-1.6,4.6-3.7C94.1,51.8,93.1,50.8,90.9,50.1z"/>
</g>
</svg>
