<?xml version="1.0" encoding="UTF-8" standalone="no"?>
<svg width="78px" height="78px" viewBox="0 0 78 78" version="1.1" xmlns="http://www.w3.org/2000/svg" xmlns:xlink="http://www.w3.org/1999/xlink">
    <!-- Generator: Sketch 44.1 (41455) - http://www.bohemiancoding.com/sketch -->
    <title>cash</title>
    <desc>Created with Sketch.</desc>
    <defs>
        <polygon id="path-1" points="0 35 45.7692308 35 45.7692308 0 0 0"></polygon>
    </defs>
    <g id="Page-1" stroke="none" stroke-width="1" fill="none" fill-rule="evenodd">
        <g id="Skuid-Home-Rework-Copy-2" transform="translate(-230.000000, -1874.000000)">
            <g id="Forrester" transform="translate(196.000000, 1874.000000)">
                <g id="cash" transform="translate(34.000000, 0.000000)">
                    <circle id="Oval-4" fill="#7FAE39" cx="39" cy="39" r="39"></circle>
                    <g id="CASH" transform="translate(16.000000, 19.000000)">
                        <path d="M0,35 L45.7692308,35 L45.7692308,10.7692308 L0,10.7692308 L0,35 Z M2.69230769,32.3076923 L43.0782692,32.3076923 L43.0782692,13.4615385 L2.69230769,13.4615385 L2.69230769,32.3076923 Z" id="Fill-1" fill="#FFFFFF"></path>
                        <g id="Group-15">
                            <path d="M29.6153846,22.8846154 C29.6153846,26.6013462 26.6013462,29.6153846 22.8846154,29.6153846 C19.1678846,29.6153846 16.1538462,26.6013462 16.1538462,22.8846154 C16.1538462,19.1678846 19.1678846,16.1538462 22.8846154,16.1538462 C26.6013462,16.1538462 29.6153846,19.1678846 29.6153846,22.8846154 Z" id="Fill-2" fill="#FFFFFF"></path>
                            <path d="M45.7692308,13.4615385 C45.7692308,14.9490385 44.5644231,16.1538462 43.0769231,16.1538462 C41.5894231,16.1538462 40.3846154,14.9490385 40.3846154,13.4615385 C40.3846154,11.9740385 41.5894231,10.7692308 43.0769231,10.7692308 C44.5644231,10.7692308 45.7692308,11.9740385 45.7692308,13.4615385" id="Fill-4" fill="#FFFFFF"></path>
                            <path d="M5.38461538,13.4615385 C5.38461538,14.9490385 4.17980769,16.1538462 2.69230769,16.1538462 C1.20480769,16.1538462 0,14.9490385 0,13.4615385 C0,11.9740385 1.20480769,10.7692308 2.69230769,10.7692308 C4.17980769,10.7692308 5.38461538,11.9740385 5.38461538,13.4615385" id="Fill-6" fill="#FFFFFF"></path>
                            <path d="M5.38461538,32.3076923 C5.38461538,33.7951923 4.17980769,35 2.69230769,35 C1.20480769,35 0,33.7951923 0,32.3076923 C0,30.8201923 1.20480769,29.6153846 2.69230769,29.6153846 C4.17980769,29.6153846 5.38461538,30.8201923 5.38461538,32.3076923" id="Fill-8" fill="#FFFFFF"></path>
                            <path d="M45.7692308,32.3076923 C45.7692308,33.7951923 44.5644231,35 43.0769231,35 C41.5894231,35 40.3846154,33.7951923 40.3846154,32.3076923 C40.3846154,30.8201923 41.5894231,29.6153846 43.0769231,29.6153846 C44.5644231,29.6153846 45.7692308,30.8201923 45.7692308,32.3076923" id="Fill-10" fill="#FFFFFF"></path>
                            <mask id="mask-2" fill="white">
                                <use xlink:href="#path-1"></use>
                            </mask>
                            <g id="Clip-13"></g>
                            <polygon id="Fill-12" fill="#FFFFFF" mask="url(#mask-2)" points="2.69230769 8.07692308 43.0769231 8.07692308 43.0769231 5.38461538 2.69230769 5.38461538"></polygon>
                            <polygon id="Fill-14" fill="#FFFFFF" mask="url(#mask-2)" points="5.38461538 2.69230769 40.3846154 2.69230769 40.3846154 0 5.38461538 0"></polygon>
                        </g>
                    </g>
                </g>
            </g>
        </g>
    </g>
</svg>