<?xml version="1.0" encoding="UTF-8" standalone="no"?>
<svg width="78px" height="78px" viewBox="0 0 78 78" version="1.1" xmlns="http://www.w3.org/2000/svg" xmlns:xlink="http://www.w3.org/1999/xlink">
    <!-- Generator: Sketch 44.1 (41455) - http://www.bohemiancoding.com/sketch -->
    <title>calendar</title>
    <desc>Created with Sketch.</desc>
    <defs>
        <polygon id="path-1" points="21.0000618 27.1764706 42 27.1764706 42 -7.10542736e-15 0.000123529412 1.67186526e-15 0.000123529412 27.1764706"></polygon>
        <polygon id="path-3" points="42 9.88235294 42 -7.10542736e-15 0.000247058824 1.67186526e-15 0.000247058824 9.88235294 42 9.88235294"></polygon>
        <polygon id="path-5" points="0 42 42 42 42 0 0 0"></polygon>
    </defs>
    <g id="Page-1" stroke="none" stroke-width="1" fill="none" fill-rule="evenodd">
        <g id="Skuid-Home-Rework-Copy-2" transform="translate(-508.000000, -1874.000000)">
            <g id="Forrester" transform="translate(196.000000, 1874.000000)">
                <g id="calendar" transform="translate(312.000000, 0.000000)">
                    <circle id="Oval-4-Copy-2" fill="#00B4C8" cx="39" cy="39" r="39"></circle>
                    <g id="calendar-icon" transform="translate(18.000000, 17.000000)">
                        <polygon id="Fill-1" fill="#FFFFFF" points="12.3529412 22.2352941 14.8235294 22.2352941 14.8235294 19.7647059 12.3529412 19.7647059"></polygon>
                        <polygon id="Fill-2" fill="#FFFFFF" points="17.2941176 22.2352941 19.7647059 22.2352941 19.7647059 19.7647059 17.2941176 19.7647059"></polygon>
                        <polygon id="Fill-3" fill="#FFFFFF" points="22.2352941 22.2352941 24.7058824 22.2352941 24.7058824 19.7647059 22.2352941 19.7647059"></polygon>
                        <polygon id="Fill-4" fill="#FFFFFF" points="7.41176471 27.1764706 9.88235294 27.1764706 9.88235294 24.7058824 7.41176471 24.7058824"></polygon>
                        <polygon id="Fill-5" fill="#FFFFFF" points="12.3529412 27.1764706 14.8235294 27.1764706 14.8235294 24.7058824 12.3529412 24.7058824"></polygon>
                        <polygon id="Fill-6" fill="#FFFFFF" points="17.2941176 27.1764706 19.7647059 27.1764706 19.7647059 24.7058824 17.2941176 24.7058824"></polygon>
                        <polygon id="Fill-7" fill="#FFFFFF" points="22.2352941 27.1764706 24.7058824 27.1764706 24.7058824 24.7058824 22.2352941 24.7058824"></polygon>
                        <polygon id="Fill-8" fill="#FFFFFF" points="7.41176471 32.1176471 9.88235294 32.1176471 9.88235294 29.6470588 7.41176471 29.6470588"></polygon>
                        <polygon id="Fill-9" fill="#FFFFFF" points="12.3529412 32.1176471 14.8235294 32.1176471 14.8235294 29.6470588 12.3529412 29.6470588"></polygon>
                        <polygon id="Fill-10" fill="#FFFFFF" points="17.2941176 32.1176471 19.7647059 32.1176471 19.7647059 29.6470588 17.2941176 29.6470588"></polygon>
                        <polygon id="Fill-11" fill="#FFFFFF" points="22.2352941 32.1176471 24.7058824 32.1176471 24.7058824 29.6470588 22.2352941 29.6470588"></polygon>
                        <polygon id="Fill-12" fill="#FFFFFF" points="27.1764706 22.2352941 29.6470588 22.2352941 29.6470588 19.7647059 27.1764706 19.7647059"></polygon>
                        <polygon id="Fill-13" fill="#FFFFFF" points="32.1176471 22.2352941 34.5882353 22.2352941 34.5882353 19.7647059 32.1176471 19.7647059"></polygon>
                        <polygon id="Fill-14" fill="#FFFFFF" points="27.1764706 27.1764706 29.6470588 27.1764706 29.6470588 24.7058824 27.1764706 24.7058824"></polygon>
                        <polygon id="Fill-15" fill="#FFFFFF" points="32.1176471 27.1764706 34.5882353 27.1764706 34.5882353 24.7058824 32.1176471 24.7058824"></polygon>
                        <polygon id="Fill-16" fill="#FFFFFF" points="27.1764706 32.1176471 29.6470588 32.1176471 29.6470588 29.6470588 27.1764706 29.6470588"></polygon>
                        <polygon id="Fill-17" fill="#FFFFFF" points="32.1176471 32.1176471 34.5882353 32.1176471 34.5882353 29.6470588 32.1176471 29.6470588"></polygon>
                        <g id="Group-27">
                            <g id="Group-20" transform="translate(0.000000, 14.823529)">
                                <mask id="mask-2" fill="white">
                                    <use xlink:href="#path-1"></use>
                                </mask>
                                <g id="Clip-19"></g>
                                <path d="M39.4764176,0 L39.4764176,24.7058824 L2.52382941,24.7058824 L2.52382941,0 L0.000123529412,0 L0.000123529412,24.7058824 C0.000123529412,26.0647059 1.13535882,27.1764706 2.52382941,27.1764706 L39.4764176,27.1764706 C40.8648882,27.1764706 42.0001235,26.0647059 42.0001235,24.7058824 L42.0001235,0 L39.4764176,0 Z" id="Fill-18" fill="#FFFFFF" mask="url(#mask-2)"></path>
                            </g>
                            <g id="Group-23" transform="translate(0.000000, 2.470588)">
                                <mask id="mask-4" fill="white">
                                    <use xlink:href="#path-3"></use>
                                </mask>
                                <g id="Clip-22"></g>
                                <path d="M39.4765412,7.41176471 L2.52395294,7.41176471 L2.52395294,4.94117647 L2.52395294,2.47058824 L39.4765412,2.47058824 L39.4765412,4.94117647 L39.4765412,7.41176471 Z M39.4765412,0 L2.52395294,0 C1.13548235,0 0.000247058824,1.11176471 0.000247058824,2.47058824 L0.000247058824,9.88235294 L42.0002471,9.88235294 L42.0002471,2.47058824 C42.0002471,1.11176471 40.8650118,0 39.4765412,0 L39.4765412,0 Z" id="Fill-21" fill="#FFFFFF" mask="url(#mask-4)"></path>
                            </g>
                            <mask id="mask-6" fill="white">
                                <use xlink:href="#path-5"></use>
                            </mask>
                            <g id="Clip-25"></g>
                            <polygon id="Fill-24" fill="#FFFFFF" mask="url(#mask-6)" points="7.41176471 7.41176471 9.88235294 7.41176471 9.88235294 0 7.41176471 0"></polygon>
                            <polygon id="Fill-26" fill="#FFFFFF" mask="url(#mask-6)" points="32.1176471 7.41176471 34.5882353 7.41176471 34.5882353 0 32.1176471 0"></polygon>
                        </g>
                    </g>
                </g>
            </g>
        </g>
    </g>
</svg>