<?xml version="1.0" encoding="UTF-8" standalone="no"?>
<svg width="78px" height="78px" viewBox="0 0 78 78" version="1.1" xmlns="http://www.w3.org/2000/svg" xmlns:xlink="http://www.w3.org/1999/xlink">
    <!-- Generator: Sketch 44.1 (41455) - http://www.bohemiancoding.com/sketch -->
    <title>speed</title>
    <desc>Created with Sketch.</desc>
    <defs></defs>
    <g id="Page-1" stroke="none" stroke-width="1" fill="none" fill-rule="evenodd">
        <g id="Skuid-Home-Rework-Copy-2" transform="translate(-1062.000000, -1875.000000)">
            <g id="Forrester" transform="translate(196.000000, 1874.000000)">
                <g id="Group-9" transform="translate(739.000000, 1.000000)">
                    <g id="speed" transform="translate(127.000000, 0.000000)">
                        <circle id="Oval-4-Copy-3" fill="#005F8B" cx="39" cy="39" r="39"></circle>
                        <g id="Page-1" transform="translate(6.000000, 16.000000)">
                            <path d="M59.3808246,24.1850298 C59.3808246,34.5736468 50.9592288,42.9952426 40.5706118,42.9952426 C30.1829097,42.9952426 21.7613139,34.5736468 21.7613139,24.1850298 C21.7613139,13.7964128 30.1829097,5.37481702 40.5706118,5.37481702 C50.9592288,5.37481702 59.3808246,13.7964128 59.3808246,24.1850298 Z" id="Stroke-1" stroke="#FFFFFF" stroke-width="3"></path>
                            <path d="M17.0826058,23.8888889 L0.556163194,23.8888889" id="Stroke-3" stroke="#FFFFFF" stroke-width="2" stroke-linecap="round"></path>
                            <path d="M17.0826058,19.1111111 L5.28595067,19.1111111" id="Stroke-5" stroke="#FFFFFF" stroke-width="2" stroke-linecap="round"></path>
                            <path d="M19.305465,13.3777778 L7.50880987,13.3777778" id="Stroke-7" stroke="#FFFFFF" stroke-width="2" stroke-linecap="round"></path>
                            <path d="M17.0826058,28.6666667 L5.28595067,28.6666667" id="Stroke-9" stroke="#FFFFFF" stroke-width="2" stroke-linecap="round"></path>
                            <path d="M19.252953,33.4444444 L7.45629788,33.4444444" id="Stroke-11" stroke="#FFFFFF" stroke-width="2" stroke-linecap="round"></path>
                            <path d="M40.5602735,24.9414638 L44.7074863,20.7942511" id="Stroke-13" stroke="#FFFFFF" stroke-width="2"></path>
                            <path d="M42.4669118,24.948783 C42.4669118,26.100634 41.5328054,27.0347404 40.3809544,27.0347404 C39.2281884,27.0347404 38.294082,26.100634 38.294082,24.948783 C38.294082,23.7969319 39.2281884,22.8628255 40.3809544,22.8628255 C41.5328054,22.8628255 42.4669118,23.7969319 42.4669118,24.948783" id="Fill-15" fill="#FFFFFF"></path>
                            <path d="M42.4669118,24.948783 C42.4669118,26.100634 41.5328054,27.0347404 40.3809544,27.0347404 C39.2281884,27.0347404 38.294082,26.100634 38.294082,24.948783 C38.294082,23.7969319 39.2281884,22.8628255 40.3809544,22.8628255 C41.5328054,22.8628255 42.4669118,23.7969319 42.4669118,24.948783 Z" id="Stroke-17" stroke="#FFFFFF" stroke-width="0.75"></path>
                            <path d="M44.4279863,0 L36.5233054,0" id="Stroke-19" stroke="#FFFFFF" stroke-width="2" stroke-linecap="round"></path>
                            <path d="M40.4758288,2.32995957 L40.4758288,0.71517234" id="Stroke-21" stroke="#FFFFFF" stroke-width="2" stroke-linecap="round"></path>
                            <path d="M43.011731,10.9275809 C43.0721139,10.5387511 43.4316671,10.2688574 43.8278161,10.3292404 L43.8269012,10.3365596 C44.2148161,10.3969426 44.4783054,10.7555809 44.4179225,11.1444106 C44.3575395,11.5405596 43.9979863,11.803134 43.6100714,11.743666 C43.2139225,11.6823681 42.9504331,11.3237298 43.011731,10.9275809 M46.7993905,12.7418149 C46.4416671,12.5707298 46.2980288,12.1434745 46.4691139,11.786666 C46.6466033,11.4298574 47.0747735,11.2862191 47.431582,11.4573043 C47.7819863,11.6274745 47.9311139,12.0629638 47.7545395,12.4115383 C47.6163905,12.7015596 47.3099012,12.8570915 47.0061565,12.8104319 C46.9347948,12.7994532 46.8661778,12.7738362 46.7993905,12.7418149 M49.5513905,14.650283 L49.5513905,14.650283 C49.2686884,14.3749 49.2513054,13.9238574 49.5193693,13.6393255 C49.7956671,13.3483894 50.2467097,13.3383255 50.5303267,13.6073043 C50.8221778,13.876283 50.8313267,14.3337298 50.5632629,14.6182617 C50.3976671,14.7948362 50.1552203,14.8661979 49.9365608,14.8323468 C49.7947522,14.8103894 49.659348,14.753666 49.5513905,14.650283 M51.6135608,17.2842617 C51.4205182,16.9430064 51.5458586,16.5066021 51.8861991,16.3126447 C52.2274544,16.1196021 52.6656884,16.2376234 52.8578161,16.585283 C53.0581778,16.9274532 52.9328374,17.3647723 52.5924969,17.5578149 C52.4424544,17.6364957 52.2869225,17.6630277 52.1304757,17.6383255 C51.9191352,17.6063043 51.7279225,17.4827936 51.6135608,17.2842617 M52.8029225,20.4131979 C52.7242416,20.0316872 52.9648586,19.6492617 53.3536884,19.5641766 C53.7434331,19.4800064 54.1176246,19.7251979 54.2027097,20.1149426 C54.2877948,20.4973681 54.0416884,20.8788787 53.6519437,20.9639638 C53.5696033,20.9804319 53.4826884,20.9813468 53.3976033,20.9676234 C53.1149012,20.9246234 52.8651352,20.7123681 52.8029225,20.4131979 M53.0051139,23.7516447 L53.0051139,23.7516447 C53.0435395,23.3591553 53.3911991,23.0737085 53.7846033,23.1048149 C54.1770927,23.1432404 54.4634544,23.4918149 54.4314331,23.8852191 C54.3930076,24.2767936 54.0435182,24.5704745 53.6519437,24.5320489 C53.6373054,24.5293043 53.623582,24.5274745 53.6089437,24.5256447 C53.2411565,24.4689213 52.9749225,24.1304106 53.0051139,23.7516447" id="Fill-23" fill="#FFFFFF"></path>
                            <path d="M40.1333333,11.614666 L40.1333333,25.013283" id="Stroke-25" stroke="#FFFFFF" stroke-width="2" stroke-linecap="round" stroke-linejoin="round"></path>
                        </g>
                    </g>
                </g>
            </g>
        </g>
    </g>
</svg>