<?xml version="1.0" encoding="UTF-8" standalone="no"?>
<svg width="46px" height="46px" viewBox="0 0 46 46" version="1.1" xmlns="http://www.w3.org/2000/svg" xmlns:xlink="http://www.w3.org/1999/xlink">
    <defs></defs>
    <g id="Page-1" stroke="none" stroke-width="1" fill="none" fill-rule="evenodd">
        <g id="Skuid-Home" transform="translate(-260.000000, -4421.000000)">
            <g id="Professional-Services-Section" transform="translate(0.000000, 4233.000000)">
                <g id="Experience-Design" transform="translate(169.000000, 188.000000)">
                    <g id="Experiencer-Design-Icon" transform="translate(91.000000, 0.000000)">
                        <g id="Page-1" transform="translate(0.000000, 0.501976)">
                            <path d="M16,13.8339921 L29.999,13.8339921 L29.999,0.000988142293 L16,0.000988142293 L16,13.8339921 Z M18,11.8577075 L28,11.8577075 L28,1.97628458 L18,1.97628458 L18,11.8577075 Z" id="Fill-1" fill="#A9CEDD"></path>
                            <path d="M0,45.4545455 L14,45.4545455 L14,31.6205534 L0,31.6205534 L0,45.4545455 Z M2,43.4782609 L12,43.4782609 L12,33.5968379 L2,33.5968379 L2,43.4782609 Z" id="Fill-2" fill="#A9CEDD"></path>
                            <path d="M32,45.4545455 L45.999,45.4545455 L45.999,31.6205534 L32,31.6205534 L32,45.4545455 Z M34,43.4782609 L44,43.4782609 L44,33.5968379 L34,33.5968379 L34,43.4782609 Z" id="Fill-3" fill="#A9CEDD"></path>
                            <polygon id="Fill-4" fill="#016B9B" points="38 27.6679842 40 27.6679842 40 23.715415 40 21.7391304 38 21.7391304 24 21.7391304 24 17.7865613 22 17.7865613 22 21.7391304 8 21.7391304 6 21.7391304 6 23.715415 6 27.6679842 8 27.6679842 8 23.715415 22 23.715415 24 23.715415 38 23.715415"></polygon>
                        </g>
                    </g>
                </g>
            </g>
        </g>
    </g>
</svg>