<svg id="Layer_1" data-name="Layer 1" xmlns="http://www.w3.org/2000/svg" viewBox="0 0 139 94"><defs><style>.cls-1{fill:#00b48d;}.cls-2{fill:#231f20;}</style></defs><title>Artboard 1 copy 5</title><path id="element" class="cls-1" d="M15,23.94V34.61H52.13V23.94Zm34.82,8.35H17.31v-6h32.5Z"/><path class="cls-2" d="M17.31,52.24H15V41.57h2.32v4.22h4.15V41.57h2.32V52.24H21.46V47.82H17.31Zm11.74.17a3.69,3.69,0,0,1-4-3.93,3.71,3.71,0,0,1,3.65-4c2.27,0,3.4,1.52,3.4,3.79v.85H27.29a1.92,1.92,0,0,0,2.12,1.48,3.63,3.63,0,0,0,2.1-.61h.09v1.76A4.32,4.32,0,0,1,29.05,52.41Zm-1.76-4.85h2.77c-.05-.78-.38-1.33-1.28-1.33A1.4,1.4,0,0,0,27.29,47.56Zm10.91.21L37,52.24H35l-2.32-7.51v-.09h2.22l1.26,4.49,1.19-4.49h1.81l1.21,4.49,1.28-4.49h2.13v.09l-2.32,7.51h-2Zm9.34,4.64c-1.84,0-2.59-.73-2.59-2.46V41.57h2.25V49.8c0,.53.2.72.65.72a1.69,1.69,0,0,0,.51-.1h0v1.86A2.69,2.69,0,0,1,47.54,52.41Zm5.44,0a3.69,3.69,0,0,1-4-3.93,3.71,3.71,0,0,1,3.65-4c2.27,0,3.4,1.52,3.4,3.79v.85H51.22a1.92,1.92,0,0,0,2.12,1.48,3.63,3.63,0,0,0,2.1-.61h.09v1.76A4.32,4.32,0,0,1,53,52.41Zm-1.76-4.85H54c-.05-.78-.38-1.33-1.28-1.33A1.4,1.4,0,0,0,51.22,47.56Zm14.1-2.92H67v1.81H65.32v3.09c0,.67.26,1,.94,1a2.13,2.13,0,0,0,.68-.1H67v1.78a4,4,0,0,1-1.38.22c-1.83,0-2.54-.84-2.54-2.77V46.45H60.18v3.09c0,.67.26,1,.94,1a2.13,2.13,0,0,0,.68-.1h.05v1.78a4,4,0,0,1-1.38.22c-1.83,0-2.54-.84-2.54-2.77V46.45H56.77V44.65h1.16V42.56h2.25v2.08h2.88V42.56h2.25Zm13.36.55c0,2.32-1.55,3.58-3.91,3.58H73.12v3.46H70.8V41.57h4C77.13,41.57,78.68,42.84,78.68,45.19Zm-4.1,1.62a1.64,1.64,0,1,0,0-3.28H73.12v3.28Zm9.11,4.68a2.56,2.56,0,0,1-2,.89A2.48,2.48,0,0,1,79,49.87c0-1.49,1.21-2.47,3-2.47a6,6,0,0,1,1.69.26v-.14c0-.82-.46-1.18-1.67-1.18a4.34,4.34,0,0,0-2.13.58h-.08V45.11a5.6,5.6,0,0,1,2.61-.63c2.29,0,3.53,1.09,3.53,3v4.76H83.7Zm-.07-1.64V49.2a2.63,2.63,0,0,0-1.25-.26c-.73,0-1.18.27-1.18.89s.44.91,1.11.91A1.32,1.32,0,0,0,83.63,49.85Zm3.4-1.4a3.8,3.8,0,0,1,4-4,3.58,3.58,0,0,1,2.12.58V47H93a2.83,2.83,0,0,0-1.74-.6,2.06,2.06,0,0,0,0,4.11A2.83,2.83,0,0,0,93,49.9h.09v1.93a3.58,3.58,0,0,1-2.12.58A3.78,3.78,0,0,1,87,48.45Zm9.76.34v3.45H94.54V41.57h2.25v6.08l2.27-3h2.56v.09l-2.73,3.45,2.73,4v.09H99Zm10,2.7a2.56,2.56,0,0,1-2,.89,2.48,2.48,0,0,1-2.7-2.51c0-1.49,1.21-2.47,3-2.47a6,6,0,0,1,1.69.26v-.14c0-.82-.46-1.18-1.67-1.18a4.34,4.34,0,0,0-2.13.58h-.08V45.11a5.6,5.6,0,0,1,2.61-.63c2.29,0,3.53,1.09,3.53,3v4.76h-2.18Zm-.07-1.64V49.2a2.63,2.63,0,0,0-1.25-.26c-.73,0-1.18.27-1.18.89s.44.91,1.11.91A1.32,1.32,0,0,0,106.68,49.85Zm6-4a2,2,0,0,1,1.84-1.31,1.79,1.79,0,0,1,.73.14v2.15h-.08a2.57,2.57,0,0,0-1-.17,1.42,1.42,0,0,0-1.43,1.19v4.37h-2.25v-7.6h2.19Zm8.62,5.58a2.69,2.69,0,0,1-2.25,1c-1.95,0-3.19-1.77-3.19-4s1.25-4,3.19-4a2.7,2.7,0,0,1,2.18.87V41.57h2.25V52.24h-2.19Zm-.07-1.79V47.22a1.67,1.67,0,0,0-1.43-.78c-1,0-1.66.72-1.66,2s.67,2,1.66,2A1.67,1.67,0,0,0,121.27,49.66ZM15,55.72h6.59V57h-5.1v3.26H21.1v1.26H16.47V65.1h5.1v1.3H15Zm12,3c1.69,0,2.63,1.11,2.63,2.94v4.73H28.23V61.7A1.48,1.48,0,0,0,26.66,60a2,2,0,0,0-1.89,1.37v5H23.35V58.88h1.42V60A2.59,2.59,0,0,1,27,58.73Zm6.44.15h1.93v1.21H33.45v4c0,.85.44,1.14,1.25,1.14a1.82,1.82,0,0,0,.63-.1h.05v1.21a2.3,2.3,0,0,1-.89.15c-1.76,0-2.46-.8-2.46-2.27V60.09h-1.3V58.88H32v-2h1.42ZM40,66.55a3.54,3.54,0,0,1-3.7-3.82c0-2.36,1.4-4,3.43-4s3.14,1.49,3.14,3.69v.65H37.7a2.3,2.3,0,0,0,2.47,2.25,3.2,3.2,0,0,0,2.1-.68h.05v1.25A3.72,3.72,0,0,1,40,66.55ZM37.76,61.9h3.74c-.05-1.11-.6-2-1.76-2A2.07,2.07,0,0,0,37.76,61.9ZM45.95,60a2,2,0,0,1,1.86-1.28,1.79,1.79,0,0,1,.73.12v1.4h-.05a2.19,2.19,0,0,0-.89-.15,1.73,1.73,0,0,0-1.66,1.37v4.9H44.53V58.88h1.42Zm7.41-1.31c2.24,0,3.43,1.83,3.43,3.91s-1.19,3.91-3.43,3.91a2.72,2.72,0,0,1-2.1-1v3.72H49.84V58.88h1.42v.85A2.68,2.68,0,0,1,53.36,58.73Zm-.24,6.54c1.4,0,2.22-1.11,2.22-2.63S54.52,60,53.12,60a2.12,2.12,0,0,0-1.86,1.19v2.89A2.1,2.1,0,0,0,53.12,65.27ZM59.88,60a2,2,0,0,1,1.86-1.28,1.79,1.79,0,0,1,.73.12v1.4h-.05a2.19,2.19,0,0,0-.89-.15,1.73,1.73,0,0,0-1.66,1.37v4.9H58.46V58.88h1.42Zm4.64-4.2a.89.89,0,1,1,0,1.78.89.89,0,1,1,0-1.78Zm-.7,3h1.42v7.51H63.82ZM70.29,62c1.08.34,2.27.78,2.27,2.22s-1.26,2.32-2.88,2.32a4.36,4.36,0,0,1-2.54-.68V64.51h.07a3.67,3.67,0,0,0,2.46.84c.8,0,1.52-.31,1.52-1s-.6-.82-1.78-1.21-2.24-.73-2.24-2.15,1.19-2.3,2.71-2.3a4,4,0,0,1,2.3.61v1.37h-.05a3.41,3.41,0,0,0-2.22-.79c-.89,0-1.38.39-1.38.92S69.08,61.61,70.29,62Zm7.2,4.54a3.54,3.54,0,0,1-3.7-3.82c0-2.36,1.4-4,3.43-4s3.14,1.49,3.14,3.69v.65H75.2a2.3,2.3,0,0,0,2.48,2.25,3.2,3.2,0,0,0,2.1-.68h.05v1.25A3.72,3.72,0,0,1,77.49,66.55ZM75.26,61.9H79c-.05-1.11-.6-2-1.76-2A2.07,2.07,0,0,0,75.26,61.9Z"/></svg>