<svg id="Layer_1" data-name="Layer 1" xmlns="http://www.w3.org/2000/svg" viewBox="0 0 139 94"><defs><style>.cls-1{fill:#4e84c4;}</style></defs><title>Artboard 1 copy 4</title><g id="Intuit_Logo" data-name="Intuit Logo"><path class="cls-1" d="M87.66,61.8H84.95a.92.92,0,0,1-1-.85l0-1.06a10.67,10.67,0,0,1-6.74,2.42c-4.75,0-6.7-3-6.7-7.59V42.18c0-.72.42-1,1.1-1h3c.68,0,1.06.21,1.06,1V53.83c0,2.33.59,3.94,3.14,3.94a8.17,8.17,0,0,0,4.92-2V42.18c0-.72.38-1,1.06-1h3c.68,0,1.06.21,1.06,1V60.61C88.76,61.5,88.51,61.8,87.66,61.8Z"/><path class="cls-1" d="M18.68,42.05c0-.51.25-.85.76-.85H23a.75.75,0,0,1,.8.85V60.74c0,.76-.34,1.06-1.06,1.06h-3c-.76,0-1.1-.3-1.1-1.06Z"/><path class="cls-1" d="M94.06,42.05c0-.51.26-.85.76-.85h3.59a.75.75,0,0,1,.81.85V60.74c0,.76-.34,1.06-1.06,1.06h-3c-.76,0-1.1-.3-1.1-1.06Z"/><path class="cls-1" d="M46.56,61.8H43.51c-.76,0-1-.38-1-1.1V49.17c0-2.33-.63-4-3.22-4a8.41,8.41,0,0,0-5,2V60.74c0,.72-.3,1.06-1,1.06h-3.1a.92.92,0,0,1-1-1V42.27a.93.93,0,0,1,1.06-1.06H33c.59,0,1,.17,1,.8l0,1.13a11.08,11.08,0,0,1,6.87-2.46c4.75,0,6.7,3,6.7,7.59V60.7C47.57,61.42,47.32,61.8,46.56,61.8Z"/><circle class="cls-1" cx="58.55" cy="35.42" r="3.11"/><path class="cls-1" d="M66.09,41.21c.51,0,.81.17.81.72v3a.77.77,0,0,1-.85.81H61.13v15c0,.76-.34,1.06-1.1,1.06H57.08c-.76,0-1.1-.3-1.1-1.06v-15H51.06a.77.77,0,0,1-.85-.81v-3c0-.55.3-.72.81-.72Z"/><circle class="cls-1" cx="111.15" cy="35.42" r="3.11"/><path class="cls-1" d="M118.68,41.21c.51,0,.8.17.8.72v3a.77.77,0,0,1-.85.81h-4.91v15c0,.76-.34,1.06-1.1,1.06h-3c-.76,0-1.1-.3-1.1-1.06v-15h-4.91a.77.77,0,0,1-.85-.81v-3c0-.55.3-.72.8-.72Z"/><path class="cls-1" d="M120,59.19a1.37,1.37,0,1,1-1.38,1.37A1.36,1.36,0,0,1,120,59.19Zm0,2.54a1.17,1.17,0,1,0-1.13-1.18A1.13,1.13,0,0,0,120,61.73Zm-.54-2h.62c.38,0,.56.15.56.46a.41.41,0,0,1-.42.44l.46.71h-.27l-.44-.69h-.26v.69h-.25Zm.25.71H120c.22,0,.42,0,.42-.26s-.18-.25-.35-.25h-.33Z"/></g></svg>