<?xml version="1.0" encoding="utf-8"?>
<!-- Generator: Adobe Illustrator 21.0.0, SVG Export Plug-In . SVG Version: 6.00 Build 0)  -->
<svg version="1.1" id="Layer_1" xmlns="http://www.w3.org/2000/svg" xmlns:xlink="http://www.w3.org/1999/xlink" x="0px" y="0px"
	 width="140px" height="40px" viewBox="0 0 140 40" style="enable-background:new 0 0 140 40;" xml:space="preserve">
<style type="text/css">
	.st0{fill:#231F20;}
	.st1{fill:#0092C7;}
</style>
<g>
	<g>
		<path class="st0" d="M47.8,28.9c1.2,0.8,3.5,1.6,5.5,1.6c2.4,0,3.5-1,3.5-2.4c0-1.5-0.9-2.2-3.5-3.1c-4.2-1.4-5.9-3.7-5.9-6.3
			c0-3.8,3.1-6.7,8.1-6.7c2.4,0,4.5,0.6,5.8,1.3L60,17c-0.9-0.5-2.7-1.2-4.6-1.2c-1.9,0-3,1-3,2.3c0,1.4,1,2,3.8,3
			c3.9,1.4,5.7,3.4,5.8,6.6c0,3.9-3.1,6.8-8.8,6.8c-2.6,0-5-0.6-6.6-1.5L47.8,28.9z"/>
		<path class="st0" d="M69.2,21.9L69.2,21.9c0.6-0.8,1.2-1.8,1.8-2.5l5.3-7h6.6l-8,8.8L83.9,34h-6.7L71,24.4l-1.8,2.2V34h-5.4V2.5
			h5.4V21.9z"/>
		<path class="st0" d="M103.6,27.5c0,2.6,0.1,4.7,0.2,6.5H99l-0.3-3.2h-0.1c-0.9,1.5-3.1,3.7-7,3.7c-3.9,0-7.5-2.3-7.5-9.4V12.4h5.4
			v11.7c0,3.6,1.2,5.9,4,5.9c2.2,0,3.6-1.5,4.2-2.9c0.2-0.4,0.3-1.1,0.3-1.7v-13h5.4V27.5z"/>
		<rect x="106.2" y="12.4" class="st0" width="5.4" height="21.6"/>
		<path class="st0" d="M134.9,2.5v25.4c0,2.2,0.1,4.6,0.2,6.1h-4.8l-0.3-3.4h-0.1c-1.3,2.4-3.9,3.9-7,3.9c-5.2,0-9.3-4.4-9.3-11
			c0-7.2,4.5-11.5,9.7-11.5c3,0,5.1,1.2,6.1,2.8h0.1V2.5H134.9z M129.4,21.4c0-0.4,0-1-0.1-1.5c-0.5-2.1-2.2-3.8-4.7-3.8
			c-3.5,0-5.4,3.1-5.4,7.1c0,4,1.9,6.9,5.4,6.9c2.2,0,4.2-1.5,4.7-3.9c0.1-0.5,0.2-1,0.2-1.6V21.4z"/>
		<g>
			<rect x="27.9" y="0.2" class="st1" width="11.7" height="9.3"/>
			<path class="st1" d="M27.9,13.3v11.6c0,0.9-0.7,1.6-1.6,1.6c-0.9,0-1.6-0.7-1.6-1.6v-9.4h-1.2v13.2c0,0.9-0.7,1.6-1.6,1.6
				c-0.9,0-1.6-0.7-1.6-1.6V16.6h-1.2v10.5c0,0.9-0.7,1.6-1.6,1.6c-0.9,0-1.6-0.7-1.6-1.6V15.5h-1.2V23c0,0.9-0.7,1.6-1.6,1.6
				c-0.9,0-1.6-0.7-1.6-1.6V8.8c0,0,0-0.1,0-0.1V0.2H0v20.6c0,10.5,8.9,19,19.8,19s19.8-8.5,19.8-19v-7.3H27.9V13.3z"/>
			<circle class="st1" cx="16.9" cy="4.9" r="2.3"/>
			<circle class="st1" cx="22.9" cy="4.9" r="2.3"/>
		</g>
		<path class="st0" d="M112,7.2c0,1.6-1.2,2.9-3.1,2.9c-1.8,0-3-1.3-3-2.9c0-1.7,1.2-3,3.1-3C110.8,4.3,112,5.6,112,7.2z"/>
	</g>
	<g>
		<path class="st0" d="M140,4.2c0,0.9-0.7,1.6-1.7,1.6c-0.9,0-1.7-0.7-1.7-1.6c0-0.9,0.7-1.6,1.7-1.6C139.3,2.6,140,3.3,140,4.2z
			 M137.1,4.2c0,0.7,0.5,1.3,1.3,1.3c0.7,0,1.2-0.6,1.2-1.3c0-0.7-0.5-1.3-1.2-1.3C137.6,2.9,137.1,3.5,137.1,4.2z M138.1,5h-0.4
			V3.4c0.1,0,0.4,0,0.6,0c0.3,0,0.4,0,0.6,0.1c0.1,0.1,0.2,0.2,0.2,0.3c0,0.2-0.1,0.3-0.3,0.4v0c0.2,0,0.2,0.2,0.3,0.4
			c0,0.2,0.1,0.3,0.1,0.4h-0.4c0-0.1-0.1-0.2-0.1-0.4c0-0.2-0.1-0.2-0.3-0.2h-0.2V5z M138.1,4.1h0.2c0.2,0,0.4-0.1,0.4-0.2
			c0-0.1-0.1-0.2-0.3-0.2c-0.1,0-0.2,0-0.2,0V4.1z"/>
	</g>
</g>
</svg>
