<?xml version="1.0" encoding="utf-8"?>
<!-- Generator: Adobe Illustrator 19.2.1, SVG Export Plug-In . SVG Version: 6.00 Build 0)  -->
<svg version="1.1" id="Layer_1" xmlns="http://www.w3.org/2000/svg" xmlns:xlink="http://www.w3.org/1999/xlink" x="0px" y="0px"
	 width="347.4px" height="100px" viewBox="0 0 347.4 100" style="enable-background:new 0 0 347.4 100;" xml:space="preserve">
<style type="text/css">
	.st0{fill:#FFFFFF;}
</style>
<g>
	<g>
		<path class="st0" d="M118.5,72.1c3,1.9,8.8,4,13.6,4c5.9,0,8.6-2.5,8.6-6c0-3.6-2.2-5.4-8.8-7.8c-10.4-3.5-14.7-9.2-14.7-15.6
			c0-9.4,7.8-16.7,20.2-16.7c5.9,0,11.1,1.4,14.3,3.2l-2.7,9.5c-2.2-1.3-6.6-3.1-11.3-3.1c-4.8,0-7.5,2.4-7.5,5.7
			c0,3.4,2.5,4.9,9.3,7.5c9.8,3.4,14.2,8.4,14.3,16.3c0,9.8-7.6,16.8-21.8,16.8c-6.5,0-12.3-1.5-16.3-3.7L118.5,72.1z"/>
		<path class="st0" d="M171.7,54.6h0.2c1.3-2.1,2.9-4.4,4.2-6.3l13.1-17.3h16.3L185.6,53l22.6,31.6h-16.6L176.2,61l-4.5,5.4v18.2
			h-13.5v-78h13.5V54.6z"/>
		<path class="st0" d="M257,68.6c0,6.4,0.2,11.6,0.4,16h-11.8l-0.7-8h-0.3c-2.3,3.7-7.6,9.2-17.2,9.2c-9.7,0-18.6-5.8-18.6-23.3
			V31.1h13.5v29.1c0,8.9,2.9,14.6,10,14.6c5.5,0,9-3.7,10.3-7.3c0.5-1.1,0.8-2.6,0.8-4.2V31.1H257V68.6z"/>
		<rect x="263.6" y="31.1" class="st0" width="13.4" height="53.5"/>
		<path class="st0" d="M334.7,6.6v63c0,5.5,0.2,11.4,0.4,15.1h-12l-0.7-8.5h-0.2c-3.2,5.9-9.7,9.7-17.4,9.7c-12.9,0-23-10.9-23-27.4
			c-0.1-17.9,11.1-28.6,24-28.6c7.4,0,12.6,3,15.1,6.9h0.2V6.6H334.7z M321.1,53.4c0-1.1-0.1-2.5-0.3-3.6c-1.2-5.2-5.5-9.4-11.6-9.4
			c-8.7,0-13.5,7.7-13.5,17.6c0,9.9,4.8,17,13.4,17c5.5,0,10.3-3.7,11.6-9.6c0.3-1.2,0.4-2.5,0.4-4V53.4z"/>
		<g>
			<rect x="69.3" y="0.9" class="st0" width="28.9" height="23"/>
			<path class="st0" d="M69.3,33.4v28.9c0,2.2-1.8,4-4,4c-2.2,0-4-1.8-4-4V38.9h-2.9v32.7c0,2.2-1.8,4-4,4c-2.2,0-4-1.8-4-4V41.6
				h-2.9v26.1c0,2.2-1.8,4-4,4c-2.2,0-4-1.8-4-4V38.9h-2.9v18.5c0,2.2-1.8,4-4,4c-2.2,0-4-1.8-4-4v-35c0-0.1,0-0.2,0-0.3V0.9H0v51
				c0,26,22,47.2,49.1,47.2s49.1-21.2,49.1-47.2V33.7H69.3V33.4z"/>
			<circle class="st0" cx="42" cy="12.5" r="5.7"/>
			<circle class="st0" cx="56.8" cy="12.5" r="5.7"/>
		</g>
		<path class="st0" d="M277.9,18.4c0,4-3,7.3-7.7,7.3c-4.5,0-7.5-3.3-7.5-7.3c0-4.2,3.1-7.4,7.6-7.4C275,11,277.8,14.2,277.9,18.4z"
			/>
	</g>
	<g>
		<path class="st0" d="M347.4,10.8c0,2.2-1.8,4-4.1,4s-4.1-1.8-4.1-4c0-2.2,1.8-4,4.2-4C345.6,6.8,347.4,8.6,347.4,10.8z
			 M340.2,10.8c0,1.8,1.3,3.2,3.1,3.2c1.7,0,3.1-1.4,3.1-3.2c0-1.8-1.3-3.2-3.1-3.2C341.6,7.6,340.2,9.1,340.2,10.8z M342.7,12.9
			h-0.9v-4c0.4,0,0.9-0.1,1.5-0.1c0.8,0,1.1,0.1,1.4,0.3c0.2,0.2,0.4,0.5,0.4,0.9c0,0.5-0.4,0.8-0.8,1v0c0.4,0.1,0.6,0.4,0.7,1
			c0.1,0.6,0.2,0.8,0.3,1h-1c-0.1-0.1-0.2-0.5-0.3-1c-0.1-0.4-0.3-0.6-0.8-0.6h-0.4V12.9z M342.7,10.7h0.4c0.5,0,0.9-0.2,0.9-0.6
			c0-0.4-0.3-0.6-0.9-0.6c-0.2,0-0.4,0-0.5,0V10.7z"/>
	</g>
</g>
</svg>
