<?xml version="1.0" encoding="UTF-8" standalone="no"?>
<svg width="48px" height="49px" viewBox="0 0 48 49" version="1.1" xmlns="http://www.w3.org/2000/svg" xmlns:xlink="http://www.w3.org/1999/xlink">
    <defs></defs>
    <g id="Page-1" stroke="none" stroke-width="1" fill="none" fill-rule="evenodd">
        <g id="Skuid-Home" transform="translate(-1150.000000, -4420.000000)">
            <g id="Professional-Services-Section" transform="translate(0.000000, 4233.000000)">
                <g id="Support" transform="translate(1058.000000, 187.000000)">
                    <g id="Support-Icon" transform="translate(92.000000, 0.000000)">
                        <path d="M38,42.3212851 L24,42.3212851 L23.172,42.3212851 L22.586,42.9096386 L20,45.5060241 L17.414,42.9096386 L16.828,42.3212851 L16,42.3212851 L2,42.3212851 L2,10.1927711 L38,10.1927711 L38,42.3212851 Z M39,8.18473896 L1,8.18473896 C0.448,8.18473896 0,8.63453815 0,9.18875502 L0,43.3253012 C0,43.8795181 0.448,44.3293173 1,44.3293173 L16,44.3293173 L20,48.3453815 L24,44.3293173 L39,44.3293173 C39.552,44.3293173 40,43.8795181 40,43.3253012 L40,9.18875502 C40,8.63453815 39.552,8.18473896 39,8.18473896 L39,8.18473896 Z" id="Fill-1" fill="#A9CEDD"></path>
                        <path d="M47,0.152610442 L9,0.152610442 C8.448,0.152610442 8,0.602409639 8,1.15662651 L8,4.1686747 L10,4.1686747 L10,2.16064257 L46,2.16064257 L46,34.2891566 L44,34.2891566 L44,36.2971888 L47,36.2971888 C47.552,36.2971888 48,35.8473896 48,35.2931727 L48,1.15662651 C48,0.602409639 47.552,0.152610442 47,0.152610442" id="Fill-3" fill="#A9CEDD"></path>
                        <path d="M14,28.2650602 C15.105,28.2650602 16,27.3664659 16,26.2570281 C16,25.1475904 15.105,24.248996 14,24.248996 C12.895,24.248996 12,25.1475904 12,26.2570281 C12,27.3664659 12.895,28.2650602 14,28.2650602" id="Fill-7" fill="#037CAC"></path>
                        <path d="M20,28.2650602 C21.104,28.2650602 22,27.3664659 22,26.2570281 C22,25.1475904 21.104,24.248996 20,24.248996 C18.896,24.248996 18,25.1475904 18,26.2570281 C18,27.3664659 18.896,28.2650602 20,28.2650602" id="Fill-9" fill="#037CAC"></path>
                        <path d="M26,28.2650602 C27.104,28.2650602 28,27.3664659 28,26.2570281 C28,25.1475904 27.104,24.248996 26,24.248996 C24.896,24.248996 24,25.1475904 24,26.2570281 C24,27.3664659 24.896,28.2650602 26,28.2650602" id="Fill-11" fill="#037CAC"></path>
                    </g>
                </g>
            </g>
        </g>
    </g>
</svg>