<?xml version="1.0" encoding="UTF-8" standalone="no"?>
<svg width="48px" height="44px" viewBox="0 0 48 44" version="1.1" xmlns="http://www.w3.org/2000/svg" xmlns:xlink="http://www.w3.org/1999/xlink">
    <defs></defs>
    <g id="Page-1" stroke="none" stroke-width="1" fill="none" fill-rule="evenodd">
        <g id="Skuid-Home" transform="translate(-854.000000, -4422.000000)">
            <g id="Professional-Services-Section" transform="translate(0.000000, 4233.000000)">
                <g id="Training" transform="translate(765.000000, 189.000000)">
                    <g id="Training-Icon" transform="translate(89.000000, 0.000000)">
                        <g id="Page-1">
                            <path d="M24.0003,-9.96015938e-05 L24.0003,1.99193227 L0.0003,1.99193227 L0.0003,33.8644422 L11.3333,33.8644422 L8.0003,43.8246016 L10.0003,43.8246016 L13.3333,33.8644422 L36.6673,33.8644422 L39.9993,43.8246016 L42.0003,43.8246016 L38.6663,33.8644422 L47.9993,33.8644422 L47.9993,1.99193227 L26.0003,1.99193227 L26.0003,-9.96015938e-05 L24.0003,-9.96015938e-05 Z M1.9993,3.98496016 L46.0003,3.98496016 L46.0003,31.8724104 L37.9993,31.8724104 L36.0003,31.8724104 L14.0003,31.8724104 L11.9993,31.8724104 L1.9993,31.8724104 L1.9993,3.98496016 Z" id="Fill-1" fill="#A9CEDD"></path>
                            <polygon id="Fill-2" fill="#037CAC" points="12 13.9442231 42 13.9442231 42 11.9521912 12 11.9521912"></polygon>
                            <polygon id="Fill-3" fill="#037CAC" points="6 13.9442231 8 13.9442231 8 11.9521912 6 11.9521912"></polygon>
                            <polygon id="Fill-4" fill="#037CAC" points="12 23.9043825 38 23.9043825 38 21.9123506 12 21.9123506"></polygon>
                            <polygon id="Fill-5" fill="#037CAC" points="6 23.9043825 8 23.9043825 8 21.9123506 6 21.9123506"></polygon>
                        </g>
                    </g>
                </g>
            </g>
        </g>
    </g>
</svg>