<svg id="Layer_1" data-name="Layer 1" xmlns="http://www.w3.org/2000/svg" viewBox="0 0 139 94"><defs><style>.cls-1{fill:#f5a121;}.cls-2{fill:#0c6eaf;}</style></defs><title>Artboard 1 copy 3</title><path class="cls-1" d="M72.6,28.39A28.52,28.52,0,0,1,99.72,45.33a1.81,1.81,0,0,1,.21,1.16,1.6,1.6,0,0,1-3.06.3A25.28,25.28,0,0,0,79.4,32.13,25.33,25.33,0,0,0,54,40.79a25.17,25.17,0,0,0-3.63,6,1.59,1.59,0,0,1-3-1.14A28.5,28.5,0,0,1,72.6,28.39Z"/><path class="cls-2" d="M67.87,46.87a.56.56,0,0,1,.57-.55h1.14c.26,0,.57.19.57.48,0,3.49,0,7,0,10.46,1.41-1.57,2.84-3.13,4.26-4.7.28-.28.5-.69.93-.73.58,0,1.17,0,1.76,0,.23,0,.48.19.4.43a2.1,2.1,0,0,1-.4.46c-1.53,1.53-3.07,3.06-4.6,4.6C74,59,75.44,60.69,76.91,62.38a7.22,7.22,0,0,1,.58.71.34.34,0,0,1-.3.47c-.49,0-1,0-1.46,0a1.56,1.56,0,0,1-.76-.1,2.31,2.31,0,0,1-.56-.6c-1.42-1.78-2.82-3.57-4.24-5.35,0,1.75,0,3.51,0,5.26,0,.2,0,.45-.14.59s-.7.18-1,.19-.67.06-.93-.17a.55.55,0,0,1-.17-.46q0-8,0-16.07Z"/><path class="cls-2" d="M61.43,51.8a3.16,3.16,0,0,1,2.2,0c.24.11.53.36.42.66s-.21.76-.34,1.13a.57.57,0,0,1-.67.31,8.76,8.76,0,0,0-1.76-.27,1.53,1.53,0,0,0-1.09.51,3.09,3.09,0,0,0-.81,1.71,7.74,7.74,0,0,0-.06,1.37q0,2.89,0,5.77c0,.32-.3.53-.59.54s-.78,0-1.18,0S57,63.34,57,63q0-5.34,0-10.69c0-.35.37-.55.68-.51s.91-.12,1.16.27.28.94.46,1.39a4.46,4.46,0,0,1,2.13-1.68Z"/><path class="cls-2" d="M21.44,52.07a.53.53,0,0,1,.42-.25c.53,0,1.07,0,1.6,0a.55.55,0,0,1,.5.5c.52,2.13,1,4.26,1.56,6.38.15.66.34,1.31.44,2s.12,1.21.22,1.81a22.78,22.78,0,0,1,.49-2.56l2-7.62a.63.63,0,0,1,.61-.5c.59,0,1.19,0,1.78,0a.71.71,0,0,1,.73.5q.76,2.78,1.52,5.56a33.56,33.56,0,0,1,.88,3.61c0,.34.1.68.17,1a50.73,50.73,0,0,1,1.1-5.71c.34-1.51.67-3,1-4.52a.61.61,0,0,1,.65-.45c.48,0,1,0,1.44,0a.42.42,0,0,1,.35.58L36.05,63a.62.62,0,0,1-.59.51c-.74,0-1.49,0-2.23,0a.54.54,0,0,1-.59-.41c-.66-2.44-1.32-4.88-2-7.32a16.57,16.57,0,0,1-.43-2.6,21.65,21.65,0,0,1-.39,2.33l-2,7.54c-.08.41-.54.49-.89.46-.69,0-1.38,0-2.07,0a.5.5,0,0,1-.48-.42l-2.9-10.6a2.78,2.78,0,0,1,0-.47Z"/><path class="cls-2" d="M108.48,51.83c.5,0,1,0,1.51,0a.75.75,0,0,1,.69.51l2.6,6.83a7.07,7.07,0,0,1,.39,1.43c.36-1.35.84-2.66,1.26-4l1.41-4.32a.64.64,0,0,1,.56-.44c.41,0,.83,0,1.24,0a.93.93,0,0,1,.71.17.35.35,0,0,1,0,.4l-4.17,11.9a9.22,9.22,0,0,1-.82,1.95,4.71,4.71,0,0,1-2.45,1.91c-.35.11-.71.35-1.08.21s-.37-.34-.51-.54-.29-.35-.25-.58a.56.56,0,0,1,.41-.47,3.46,3.46,0,0,0,1.18-.6,4.78,4.78,0,0,0,1.53-2.78c-.13-.47-.37-.89-.55-1.35l-4-9.25a2.36,2.36,0,0,1-.22-.61c0-.24.28-.35.48-.35Z"/><path class="cls-2" d="M47,51.63a5.84,5.84,0,0,1,3.76,1,5.18,5.18,0,0,1,1.93,2.88,8.46,8.46,0,0,1,0,4.17,5.24,5.24,0,0,1-2.14,3.16,6,6,0,0,1-4,.82,5.19,5.19,0,0,1-3.13-1.52,6.06,6.06,0,0,1-1.54-3.76,7.08,7.08,0,0,1,1-4.43,4.9,4.9,0,0,1,2.73-2A6.66,6.66,0,0,1,47,51.63Zm-.31,1.69a2.57,2.57,0,0,0-1.75,1.23A6.47,6.47,0,0,0,44.24,58a5.22,5.22,0,0,0,.9,3.07,2.69,2.69,0,0,0,2.16,1,2.73,2.73,0,0,0,2.13-.83,4.61,4.61,0,0,0,1-2.73,9.45,9.45,0,0,0-.19-2.85,3.13,3.13,0,0,0-1.33-2,3.33,3.33,0,0,0-2.25-.33Z"/><path class="cls-2" d="M88.66,46.72c0-.27.26-.45.51-.47s.78,0,1.17,0,.63.22.59.55q0,8.07,0,16.14a.53.53,0,0,1-.51.51,7.55,7.55,0,0,1-.93,0,.57.57,0,0,1-.5-.36c-.12-.35-.18-.71-.27-1.07A3.78,3.78,0,0,1,87,63.36a5.33,5.33,0,0,1-3.08.12,3.73,3.73,0,0,1-2.39-1.86A8.93,8.93,0,0,1,80.76,57a6.1,6.1,0,0,1,1.15-3.8,4.09,4.09,0,0,1,2.81-1.55,4,4,0,0,1,2.94.63,4.38,4.38,0,0,1,1,1q0-3.31,0-6.63Zm-3.09,6.54a2.08,2.08,0,0,0-1.73,1.11,8.11,8.11,0,0,0-.61,4,6.3,6.3,0,0,0,.55,2.55A2.06,2.06,0,0,0,85.14,62a2.68,2.68,0,0,0,2.6-.68,4.51,4.51,0,0,0,.92-2.56,10,10,0,0,0-.19-3.09,3.56,3.56,0,0,0-1-1.82,2.46,2.46,0,0,0-1.9-.55Z"/><path class="cls-2" d="M98.52,51.85a6.55,6.55,0,0,1,3.19-.06,4.29,4.29,0,0,1,2.48,1.58,6,6,0,0,1,1.08,2.88,16.63,16.63,0,0,1,.08,2.39q0,2.15,0,4.31a.47.47,0,0,1-.24.42,1.67,1.67,0,0,1-.81.1c-.3,0-.7,0-.86-.29a8,8,0,0,1-.3-1.17,4.45,4.45,0,0,1-1.41,1.28A4.9,4.9,0,0,1,96,61.6a8,8,0,0,1-.06-7.85,4.58,4.58,0,0,1,2.62-1.9Zm1,1.47a2.41,2.41,0,0,0-1,.44,3.17,3.17,0,0,0-1,1.87A11.22,11.22,0,0,0,97.39,59a3.93,3.93,0,0,0,.92,2.31,2.95,2.95,0,0,0,3.93-.17,4.71,4.71,0,0,0,.86-2.61,9.72,9.72,0,0,0-.25-3.21,2.86,2.86,0,0,0-1.13-1.66,3.16,3.16,0,0,0-2.21-.35Z"/><path class="cls-2" d="M119.48,60.36a1.76,1.76,0,0,1,1.06.1,1.51,1.51,0,0,1,.89,1.47,1.53,1.53,0,0,1-1.29,1.52,1.58,1.58,0,0,1-.67-3.09Zm-.08.31a1.31,1.31,0,0,0,.89,2.47,1.31,1.31,0,0,0,.86-1.59,1.32,1.32,0,0,0-1.74-.88Z"/><path class="cls-2" d="M119.2,61a2.61,2.61,0,0,1,1.28.14.5.5,0,0,1-.19.84,8,8,0,0,0,.37.77h-.48l-.34-.71h-.21q0,.35,0,.71h-.45c0-.58,0-1.17,0-1.75Zm.44.27c0,.17,0,.34,0,.5a2.12,2.12,0,0,0,.44,0c.14-.06.12-.23.09-.35s-.35-.1-.53-.12Z"/></svg>